<svg width="18" height="18" viewBox="0 0 18 18" fill="none" xmlns="http://www.w3.org/2000/svg">
<path d="M15.9627 6.2067L11.4996 5.55806L9.50449 1.51334C9.44999 1.40259 9.36035 1.31295 9.2496 1.25845C8.97187 1.12134 8.63437 1.2356 8.4955 1.51334L6.50038 5.55806L2.03729 6.2067C1.91425 6.22427 1.80175 6.28228 1.71561 6.37017C1.61148 6.4772 1.5541 6.62119 1.55608 6.7705C1.55806 6.91981 1.61923 7.06223 1.72616 7.16646L4.95526 10.3147L4.19237 14.7602C4.17448 14.8636 4.18593 14.97 4.2254 15.0672C4.26488 15.1645 4.33082 15.2487 4.41574 15.3104C4.50065 15.372 4.60115 15.4087 4.70583 15.4161C4.81051 15.4236 4.91519 15.4016 5.008 15.3526L8.99999 13.2538L12.992 15.3526C13.101 15.4106 13.2275 15.4299 13.3488 15.4088C13.6547 15.3561 13.8603 15.0661 13.8076 14.7602L13.0447 10.3147L16.2738 7.16646C16.3617 7.08033 16.4197 6.96783 16.4373 6.84478C16.4848 6.53716 16.2703 6.2524 15.9627 6.2067Z" fill="#E31244"/>
</svg>
