<svg width="36" height="36" viewBox="0 0 36 36" fill="none" xmlns="http://www.w3.org/2000/svg">
<g id="bi:arrow-left">
<g id="Arrow">
<path id="Vector" fill-rule="evenodd" clip-rule="evenodd" d="M2.25019 17.9999C2.25019 18.2983 2.36871 18.5845 2.57969 18.7954C2.79067 19.0064 3.07682 19.1249 3.37519 19.1249L29.9094 19.125L22.8287 26.2035C22.7241 26.308 22.6411 26.4322 22.5845 26.5689C22.5279 26.7056 22.4988 26.852 22.4988 27C22.4988 27.1479 22.5279 27.2944 22.5845 27.431C22.6411 27.5677 22.7241 27.6919 22.8287 27.7965C22.9333 27.901 23.0575 27.984 23.1941 28.0406C23.3308 28.0972 23.4773 28.1264 23.6252 28.1264C23.7731 28.1264 23.9196 28.0972 24.0562 28.0406C24.1929 27.984 24.3171 27.901 24.4217 27.7965L33.4217 18.7965C33.5265 18.6919 33.6096 18.5678 33.6663 18.4311C33.723 18.2945 33.7522 18.1479 33.7522 18C33.7522 17.852 33.723 17.7055 33.6663 17.5688C33.6096 17.4321 33.5265 17.308 33.4217 17.2035L24.4217 8.20345C24.3171 8.09885 24.1929 8.01588 24.0563 7.95927C23.9196 7.90267 23.7731 7.87353 23.6252 7.87353C23.4773 7.87353 23.3308 7.90267 23.1941 7.95927C23.0575 8.01588 22.9333 8.09885 22.8287 8.20345C22.7241 8.30805 22.6411 8.43223 22.5845 8.56889C22.5279 8.70555 22.4988 8.85203 22.4988 8.99995C22.4988 9.14788 22.5279 9.29435 22.5845 9.43101C22.6411 9.56768 22.7241 9.69185 22.8287 9.79645L29.9094 16.875L3.37519 16.8749C3.07682 16.8749 2.79067 16.9935 2.57969 17.2045C2.36871 17.4154 2.25019 17.7016 2.25019 17.9999Z" fill="#E31244"/>
</g>
</g>
</svg>
