<svg width="26" height="26" viewBox="0 0 26 26" fill="none" xmlns="http://www.w3.org/2000/svg">
<g id="bi:arrow-left">
<g id="Arrow">
<path id="Vector" fill-rule="evenodd" clip-rule="evenodd" d="M24.3747 13.0001C24.3747 13.2156 24.2891 13.4223 24.1368 13.5747C23.9844 13.727 23.7777 13.8126 23.5622 13.8126L4.39862 13.8126L9.51249 18.9249C9.58804 19.0004 9.64796 19.0901 9.68884 19.1888C9.72973 19.2875 9.75077 19.3933 9.75077 19.5001C9.75077 19.607 9.72973 19.7128 9.68884 19.8115C9.64796 19.9102 9.58804 19.9998 9.51249 20.0754C9.43695 20.1509 9.34727 20.2108 9.24857 20.2517C9.14987 20.2926 9.04408 20.3137 8.93724 20.3137C8.83041 20.3137 8.72462 20.2926 8.62592 20.2517C8.52722 20.2108 8.43754 20.1509 8.36199 20.0754L1.86199 13.5754C1.78633 13.4999 1.7263 13.4102 1.68533 13.3115C1.64437 13.2128 1.62329 13.107 1.62329 13.0001C1.62329 12.8933 1.64437 12.7874 1.68533 12.6887C1.7263 12.59 1.78633 12.5004 1.86199 12.4249L8.36199 5.92488C8.43753 5.84934 8.52722 5.78942 8.62592 5.74853C8.72462 5.70765 8.83041 5.68661 8.93724 5.68661C9.04408 5.68661 9.14986 5.70765 9.24857 5.74853C9.34727 5.78942 9.43695 5.84934 9.51249 5.92488C9.58804 6.00043 9.64796 6.09011 9.68884 6.18881C9.72973 6.28751 9.75077 6.3933 9.75077 6.50013C9.75077 6.60697 9.72973 6.71276 9.68884 6.81146C9.64796 6.91016 9.58804 6.99984 9.51249 7.07538L4.39862 12.1876L23.5622 12.1876C23.7777 12.1876 23.9844 12.2732 24.1368 12.4256C24.2891 12.578 24.3747 12.7846 24.3747 13.0001Z" fill="#272D41"/>
</g>
</g>
</svg>
