<svg width="540" height="773" viewBox="0 0 540 773" fill="none" xmlns="http://www.w3.org/2000/svg">
<rect y="6.10352e-05" width="539" height="773" fill="#FFF4F6"/>
<path d="M185.722 87.5761L184.378 99.0001H178.682L182.298 75.4801L191.834 89.1441L201.402 75.4801L205.018 99.0001H199.322L197.978 87.5761L191.834 96.9201L185.722 87.5761ZM215.47 99.3201C213.763 99.3201 212.28 99.0108 211.022 98.3921C209.784 97.7521 208.824 96.8561 208.142 95.7041C207.459 94.5521 207.118 93.1975 207.118 91.6401C207.118 90.0615 207.448 88.6961 208.11 87.5441C208.771 86.3921 209.72 85.5068 210.958 84.8881C212.216 84.2695 213.699 83.9601 215.406 83.9601C217.112 83.9601 218.552 84.2588 219.726 84.8561C220.899 85.4321 221.795 86.2748 222.414 87.3841C223.032 88.4935 223.342 89.8375 223.342 91.4161C223.342 91.6508 223.342 91.8855 223.342 92.1201C223.342 92.3335 223.32 92.5148 223.278 92.6641H209.838V89.9761H218.926L217.774 91.4481C217.88 91.2988 217.966 91.1175 218.03 90.9041C218.115 90.6695 218.158 90.4775 218.158 90.3281C218.158 89.6881 218.04 89.1335 217.806 88.6641C217.571 88.1948 217.24 87.8321 216.814 87.5761C216.387 87.3201 215.886 87.1921 215.31 87.1921C214.584 87.1921 213.976 87.3521 213.486 87.6721C212.995 87.9921 212.622 88.4828 212.366 89.1441C212.131 89.7841 212.003 90.5948 211.982 91.5761C211.982 92.4721 212.11 93.2401 212.366 93.8801C212.622 94.5201 213.006 95.0108 213.518 95.3521C214.03 95.6721 214.659 95.8321 215.406 95.8321C216.259 95.8321 216.984 95.6721 217.582 95.3521C218.2 95.0321 218.691 94.5521 219.054 93.9121L223.374 94.9681C222.606 96.4188 221.56 97.5068 220.238 98.2321C218.936 98.9575 217.347 99.3201 215.47 99.3201ZM230.07 94.3921C230.07 94.7761 230.166 95.1068 230.358 95.3841C230.55 95.6401 230.806 95.8428 231.126 95.9921C231.446 96.1201 231.798 96.1841 232.182 96.1841C232.736 96.1841 233.248 96.0668 233.718 95.8321C234.187 95.5975 234.571 95.2455 234.87 94.7761C235.168 94.3068 235.318 93.7308 235.318 93.0481L235.83 94.9681C235.83 95.9068 235.574 96.7068 235.062 97.3681C234.55 98.0081 233.888 98.4988 233.078 98.8401C232.267 99.1601 231.392 99.3201 230.454 99.3201C229.515 99.3201 228.64 99.1495 227.83 98.8081C227.04 98.4455 226.4 97.9121 225.91 97.2081C225.44 96.5041 225.206 95.6508 225.206 94.6481C225.206 93.2401 225.707 92.1308 226.71 91.3201C227.712 90.4881 229.131 90.0721 230.966 90.0721C231.862 90.0721 232.662 90.1575 233.366 90.3281C234.091 90.4988 234.71 90.7121 235.222 90.9681C235.734 91.2241 236.118 91.4908 236.374 91.7681V93.9121C235.862 93.5281 235.264 93.2401 234.582 93.0481C233.92 92.8348 233.216 92.7281 232.47 92.7281C231.894 92.7281 231.435 92.7921 231.094 92.9201C230.752 93.0481 230.496 93.2401 230.326 93.4961C230.155 93.7308 230.07 94.0295 230.07 94.3921ZM227.926 88.7921L226.294 85.5601C227.126 85.1548 228.128 84.7708 229.302 84.4081C230.475 84.0455 231.755 83.8641 233.142 83.8641C234.443 83.8641 235.606 84.0561 236.63 84.4401C237.654 84.8028 238.464 85.3361 239.062 86.0401C239.659 86.7441 239.958 87.6081 239.958 88.6321V99.0001H235.318V89.7201C235.318 89.3575 235.254 89.0481 235.126 88.7921C235.019 88.5148 234.848 88.2801 234.614 88.0881C234.379 87.8961 234.08 87.7575 233.718 87.6721C233.376 87.5868 232.982 87.5441 232.534 87.5441C231.872 87.5441 231.222 87.6188 230.582 87.7681C229.963 87.9175 229.419 88.0988 228.95 88.3121C228.48 88.5041 228.139 88.6641 227.926 88.7921ZM241.848 84.2801H251.704V88.2801H241.848V84.2801ZM244.44 79.1601H249.08V99.0001H244.44V79.1601ZM263.837 76.6001H269.405V99.0001H263.837V76.6001ZM271.837 99.0001H267.421V94.2001H271.645C272.498 94.2001 273.319 94.0935 274.109 93.8801C274.919 93.6668 275.623 93.3148 276.221 92.8241C276.839 92.3335 277.33 91.6828 277.693 90.8721C278.055 90.0401 278.237 89.0161 278.237 87.8001C278.237 86.5841 278.055 85.5708 277.693 84.7601C277.33 83.9281 276.839 83.2668 276.221 82.7761C275.623 82.2855 274.919 81.9335 274.109 81.7201C273.319 81.5068 272.498 81.4001 271.645 81.4001H267.421V76.6001H271.837C274.29 76.6001 276.413 77.0588 278.205 77.9761C279.997 78.8935 281.383 80.1841 282.365 81.8481C283.346 83.5121 283.837 85.4961 283.837 87.8001C283.837 90.0828 283.346 92.0668 282.365 93.7521C281.383 95.4161 279.997 96.7068 278.205 97.6241C276.413 98.5415 274.29 99.0001 271.837 99.0001ZM294.314 99.3201C292.607 99.3201 291.124 99.0108 289.866 98.3921C288.628 97.7521 287.668 96.8561 286.986 95.7041C286.303 94.5521 285.962 93.1975 285.962 91.6401C285.962 90.0615 286.292 88.6961 286.954 87.5441C287.615 86.3921 288.564 85.5068 289.802 84.8881C291.06 84.2695 292.543 83.9601 294.25 83.9601C295.956 83.9601 297.396 84.2588 298.57 84.8561C299.743 85.4321 300.639 86.2748 301.258 87.3841C301.876 88.4935 302.186 89.8375 302.186 91.4161C302.186 91.6508 302.186 91.8855 302.186 92.1201C302.186 92.3335 302.164 92.5148 302.122 92.6641H288.682V89.9761H297.77L296.618 91.4481C296.724 91.2988 296.81 91.1175 296.874 90.9041C296.959 90.6695 297.002 90.4775 297.002 90.3281C297.002 89.6881 296.884 89.1335 296.65 88.6641C296.415 88.1948 296.084 87.8321 295.658 87.5761C295.231 87.3201 294.73 87.1921 294.154 87.1921C293.428 87.1921 292.82 87.3521 292.33 87.6721C291.839 87.9921 291.466 88.4828 291.21 89.1441C290.975 89.7841 290.847 90.5948 290.826 91.5761C290.826 92.4721 290.954 93.2401 291.21 93.8801C291.466 94.5201 291.85 95.0108 292.362 95.3521C292.874 95.6721 293.503 95.8321 294.25 95.8321C295.103 95.8321 295.828 95.6721 296.426 95.3521C297.044 95.0321 297.535 94.5521 297.898 93.9121L302.218 94.9681C301.45 96.4188 300.404 97.5068 299.082 98.2321C297.78 98.9575 296.191 99.3201 294.314 99.3201ZM305.169 74.0401H310.033V99.0001H305.169V74.0401ZM313.506 78.7441C313.506 77.9761 313.784 77.3575 314.338 76.8881C314.893 76.3975 315.554 76.1521 316.322 76.1521C317.112 76.1521 317.773 76.3975 318.306 76.8881C318.861 77.3575 319.138 77.9761 319.138 78.7441C319.138 79.5121 318.861 80.1415 318.306 80.6321C317.773 81.1228 317.112 81.3681 316.322 81.3681C315.554 81.3681 314.893 81.1228 314.338 80.6321C313.784 80.1415 313.506 79.5121 313.506 78.7441ZM313.986 84.2801H318.658V99.0001H313.986V84.2801ZM320.654 84.2801H325.806L329.198 92.4401L332.558 84.2801H337.71L329.198 100.728L320.654 84.2801ZM346.532 99.3201C344.826 99.3201 343.343 99.0108 342.084 98.3921C340.847 97.7521 339.887 96.8561 339.204 95.7041C338.522 94.5521 338.18 93.1975 338.18 91.6401C338.18 90.0615 338.511 88.6961 339.172 87.5441C339.834 86.3921 340.783 85.5068 342.02 84.8881C343.279 84.2695 344.762 83.9601 346.468 83.9601C348.175 83.9601 349.615 84.2588 350.788 84.8561C351.962 85.4321 352.858 86.2748 353.476 87.3841C354.095 88.4935 354.404 89.8375 354.404 91.4161C354.404 91.6508 354.404 91.8855 354.404 92.1201C354.404 92.3335 354.383 92.5148 354.34 92.6641H340.9V89.9761H349.988L348.836 91.4481C348.943 91.2988 349.028 91.1175 349.092 90.9041C349.178 90.6695 349.22 90.4775 349.22 90.3281C349.22 89.6881 349.103 89.1335 348.868 88.6641C348.634 88.1948 348.303 87.8321 347.876 87.5761C347.45 87.3201 346.948 87.1921 346.372 87.1921C345.647 87.1921 345.039 87.3521 344.548 87.6721C344.058 87.9921 343.684 88.4828 343.428 89.1441C343.194 89.7841 343.066 90.5948 343.044 91.5761C343.044 92.4721 343.172 93.2401 343.428 93.8801C343.684 94.5201 344.068 95.0108 344.58 95.3521C345.092 95.6721 345.722 95.8321 346.468 95.8321C347.322 95.8321 348.047 95.6721 348.644 95.3521C349.263 95.0321 349.754 94.5521 350.116 93.9121L354.436 94.9681C353.668 96.4188 352.623 97.5068 351.3 98.2321C349.999 98.9575 348.41 99.3201 346.532 99.3201ZM362.156 84.2801V99.0001H357.388V84.2801H362.156ZM366.412 89.2721C366.156 89.0161 365.879 88.8135 365.58 88.6641C365.303 88.5148 364.951 88.4401 364.524 88.4401C364.055 88.4401 363.639 88.5681 363.276 88.8241C362.913 89.0801 362.636 89.4535 362.444 89.9441C362.252 90.4348 362.156 91.0321 362.156 91.7361L361.004 90.0401C361.004 88.8668 361.228 87.8215 361.676 86.9041C362.145 85.9868 362.753 85.2615 363.5 84.7281C364.247 84.1948 365.025 83.9281 365.836 83.9281C366.369 83.9281 366.881 84.0348 367.372 84.2481C367.863 84.4615 368.236 84.7601 368.492 85.1441L366.412 89.2721ZM386.585 84.2801L376.985 106.04H372.121L375.705 97.8161L369.337 84.2801H374.649L379.417 96.0881L376.921 96.0561L381.625 84.2801H386.585ZM402.882 87.8001C402.882 89.1655 403.192 90.3495 403.81 91.3521C404.429 92.3335 405.24 93.0801 406.242 93.5921C407.266 94.1041 408.386 94.3601 409.602 94.3601C410.669 94.3601 411.608 94.2215 412.418 93.9441C413.229 93.6668 413.954 93.3041 414.594 92.8561C415.234 92.4081 415.8 91.9281 416.29 91.4161V97.2401C415.394 97.9441 414.413 98.4988 413.346 98.9041C412.28 99.3095 410.925 99.5121 409.282 99.5121C407.49 99.5121 405.837 99.2348 404.322 98.6801C402.808 98.1255 401.506 97.3255 400.418 96.2801C399.33 95.2348 398.488 93.9975 397.89 92.5681C397.293 91.1388 396.994 89.5495 396.994 87.8001C396.994 86.0508 397.293 84.4615 397.89 83.0321C398.488 81.6028 399.33 80.3655 400.418 79.3201C401.506 78.2748 402.808 77.4748 404.322 76.9201C405.837 76.3655 407.49 76.0881 409.282 76.0881C410.925 76.0881 412.28 76.2908 413.346 76.6961C414.413 77.1015 415.394 77.6561 416.29 78.3601V84.1841C415.8 83.6721 415.234 83.1921 414.594 82.7441C413.954 82.2748 413.229 81.9121 412.418 81.6561C411.608 81.3788 410.669 81.2401 409.602 81.2401C408.386 81.2401 407.266 81.4961 406.242 82.0081C405.24 82.5201 404.429 83.2668 403.81 84.2481C403.192 85.2295 402.882 86.4135 402.882 87.8001ZM419.368 91.6401C419.368 90.0828 419.73 88.7281 420.456 87.5761C421.181 86.4241 422.184 85.5281 423.464 84.8881C424.744 84.2481 426.184 83.9281 427.784 83.9281C429.384 83.9281 430.813 84.2481 432.072 84.8881C433.352 85.5281 434.354 86.4241 435.08 87.5761C435.826 88.7281 436.2 90.0828 436.2 91.6401C436.2 93.1761 435.826 94.5201 435.08 95.6721C434.354 96.8241 433.352 97.7201 432.072 98.3601C430.813 99.0001 429.384 99.3201 427.784 99.3201C426.184 99.3201 424.744 99.0001 423.464 98.3601C422.184 97.7201 421.181 96.8241 420.456 95.6721C419.73 94.5201 419.368 93.1761 419.368 91.6401ZM424.328 91.6401C424.328 92.4081 424.488 93.0695 424.808 93.6241C425.128 94.1575 425.544 94.5735 426.056 94.8721C426.568 95.1708 427.144 95.3201 427.784 95.3201C428.402 95.3201 428.968 95.1708 429.48 94.8721C430.013 94.5735 430.429 94.1575 430.728 93.6241C431.048 93.0695 431.208 92.4081 431.208 91.6401C431.208 90.8721 431.048 90.2108 430.728 89.6561C430.429 89.1015 430.013 88.6748 429.48 88.3761C428.968 88.0775 428.402 87.9281 427.784 87.9281C427.144 87.9281 426.568 88.0775 426.056 88.3761C425.544 88.6748 425.128 89.1015 424.808 89.6561C424.488 90.2108 424.328 90.8721 424.328 91.6401ZM461.571 89.5281V99.0001H456.707V90.0401C456.707 89.1441 456.557 88.4721 456.259 88.0241C455.981 87.5548 455.512 87.3201 454.851 87.3201C454.424 87.3201 454.04 87.4268 453.699 87.6401C453.379 87.8321 453.123 88.1308 452.931 88.5361C452.76 88.9415 452.675 89.4428 452.675 90.0401V99.0001H447.811V90.0401C447.811 89.1441 447.661 88.4721 447.363 88.0241C447.085 87.5548 446.616 87.3201 445.955 87.3201C445.528 87.3201 445.144 87.4268 444.803 87.6401C444.483 87.8321 444.227 88.1308 444.035 88.5361C443.864 88.9415 443.779 89.4428 443.779 90.0401V99.0001H439.107V84.2801H443.779V86.4561C444.184 85.6668 444.739 85.0481 445.443 84.6001C446.168 84.1521 447.032 83.9281 448.035 83.9281C449.187 83.9281 450.104 84.1415 450.787 84.5681C451.469 84.9735 451.96 85.5708 452.259 86.3601C452.792 85.5921 453.453 84.9948 454.243 84.5681C455.032 84.1415 455.928 83.9281 456.931 83.9281C458.083 83.9281 458.989 84.1521 459.651 84.6001C460.333 85.0268 460.824 85.6561 461.123 86.4881C461.421 87.3201 461.571 88.3335 461.571 89.5281ZM470.157 106.04H465.325V84.2801H470.157V106.04ZM482.189 91.6401C482.189 93.3468 481.847 94.7868 481.165 95.9601C480.503 97.1335 479.639 98.0188 478.573 98.6161C477.527 99.2135 476.397 99.5121 475.181 99.5121C473.901 99.5121 472.791 99.1921 471.853 98.5521C470.935 97.8908 470.231 96.9735 469.741 95.8001C469.25 94.6055 469.005 93.2188 469.005 91.6401C469.005 90.0401 469.25 88.6535 469.741 87.4801C470.231 86.3068 470.935 85.4001 471.853 84.7601C472.791 84.0988 473.901 83.7681 475.181 83.7681C476.397 83.7681 477.527 84.0668 478.573 84.6641C479.639 85.2615 480.503 86.1468 481.165 87.3201C481.847 88.4721 482.189 89.9121 482.189 91.6401ZM477.101 91.6401C477.101 90.8721 476.941 90.2215 476.621 89.6881C476.301 89.1548 475.874 88.7495 475.341 88.4721C474.807 88.1948 474.221 88.0561 473.581 88.0561C473.026 88.0561 472.482 88.1948 471.949 88.4721C471.437 88.7281 471.01 89.1228 470.669 89.6561C470.327 90.1895 470.157 90.8508 470.157 91.6401C470.157 92.4295 470.327 93.0908 470.669 93.6241C471.01 94.1575 471.437 94.5628 471.949 94.8401C472.482 95.0961 473.026 95.2241 473.581 95.2241C474.221 95.2241 474.807 95.0855 475.341 94.8081C475.874 94.5308 476.301 94.1255 476.621 93.5921C476.941 93.0588 477.101 92.4081 477.101 91.6401ZM488.851 94.3921C488.851 94.7761 488.947 95.1068 489.139 95.3841C489.331 95.6401 489.587 95.8428 489.907 95.9921C490.227 96.1201 490.579 96.1841 490.963 96.1841C491.517 96.1841 492.029 96.0668 492.499 95.8321C492.968 95.5975 493.352 95.2455 493.651 94.7761C493.949 94.3068 494.099 93.7308 494.099 93.0481L494.611 94.9681C494.611 95.9068 494.355 96.7068 493.843 97.3681C493.331 98.0081 492.669 98.4988 491.859 98.8401C491.048 99.1601 490.173 99.3201 489.235 99.3201C488.296 99.3201 487.421 99.1495 486.611 98.8081C485.821 98.4455 485.181 97.9121 484.691 97.2081C484.221 96.5041 483.987 95.6508 483.987 94.6481C483.987 93.2401 484.488 92.1308 485.491 91.3201C486.493 90.4881 487.912 90.0721 489.747 90.0721C490.643 90.0721 491.443 90.1575 492.147 90.3281C492.872 90.4988 493.491 90.7121 494.003 90.9681C494.515 91.2241 494.899 91.4908 495.155 91.7681V93.9121C494.643 93.5281 494.045 93.2401 493.363 93.0481C492.701 92.8348 491.997 92.7281 491.251 92.7281C490.675 92.7281 490.216 92.7921 489.875 92.9201C489.533 93.0481 489.277 93.2401 489.107 93.4961C488.936 93.7308 488.851 94.0295 488.851 94.3921ZM486.707 88.7921L485.075 85.5601C485.907 85.1548 486.909 84.7708 488.083 84.4081C489.256 84.0455 490.536 83.8641 491.923 83.8641C493.224 83.8641 494.387 84.0561 495.411 84.4401C496.435 84.8028 497.245 85.3361 497.843 86.0401C498.44 86.7441 498.739 87.6081 498.739 88.6321V99.0001H494.099V89.7201C494.099 89.3575 494.035 89.0481 493.907 88.7921C493.8 88.5148 493.629 88.2801 493.395 88.0881C493.16 87.8961 492.861 87.7575 492.499 87.6721C492.157 87.5868 491.763 87.5441 491.315 87.5441C490.653 87.5441 490.003 87.6188 489.363 87.7681C488.744 87.9175 488.2 88.0988 487.731 88.3121C487.261 88.5041 486.92 88.6641 486.707 88.7921ZM511.925 90.0401C511.925 89.1655 511.754 88.4935 511.413 88.0241C511.093 87.5548 510.549 87.3201 509.781 87.3201C509.269 87.3201 508.821 87.4268 508.437 87.6401C508.053 87.8535 507.754 88.1628 507.541 88.5681C507.327 88.9735 507.221 89.4641 507.221 90.0401V99.0001H502.357V84.2801H507.221V86.4881C507.647 85.6775 508.223 85.0481 508.949 84.6001C509.695 84.1521 510.613 83.9281 511.701 83.9281C513.535 83.9281 514.869 84.4188 515.701 85.4001C516.533 86.3815 516.949 87.7575 516.949 89.5281V99.0001H511.925V90.0401ZM535.679 84.2801L526.079 106.04H521.215L524.799 97.8161L518.431 84.2801H523.743L528.511 96.0881L526.015 96.0561L530.719 84.2801H535.679ZM172.832 133.128C173.28 133.939 173.781 134.643 174.336 135.24C174.912 135.837 175.531 136.296 176.192 136.616C176.875 136.936 177.589 137.096 178.336 137.096C179.125 137.096 179.776 136.904 180.288 136.52C180.8 136.115 181.056 135.571 181.056 134.888C181.056 134.312 180.907 133.853 180.608 133.512C180.309 133.149 179.829 132.808 179.168 132.488C178.507 132.168 177.632 131.805 176.544 131.4C176.011 131.208 175.392 130.941 174.688 130.6C174.005 130.259 173.355 129.821 172.736 129.288C172.117 128.733 171.605 128.072 171.2 127.304C170.795 126.515 170.592 125.565 170.592 124.456C170.592 123.133 170.933 121.992 171.616 121.032C172.32 120.072 173.259 119.347 174.432 118.856C175.627 118.344 176.949 118.088 178.4 118.088C179.893 118.088 181.184 118.333 182.272 118.824C183.381 119.315 184.299 119.933 185.024 120.68C185.749 121.427 186.304 122.184 186.688 122.952L182.56 125.256C182.24 124.723 181.867 124.264 181.44 123.88C181.035 123.475 180.576 123.165 180.064 122.952C179.573 122.717 179.04 122.6 178.464 122.6C177.696 122.6 177.109 122.771 176.704 123.112C176.299 123.432 176.096 123.837 176.096 124.328C176.096 124.84 176.288 125.288 176.672 125.672C177.077 126.056 177.643 126.408 178.368 126.728C179.115 127.048 180.011 127.389 181.056 127.752C181.845 128.051 182.581 128.403 183.264 128.808C183.947 129.192 184.544 129.661 185.056 130.216C185.589 130.771 186.005 131.411 186.304 132.136C186.603 132.861 186.752 133.693 186.752 134.632C186.752 135.763 186.517 136.776 186.048 137.672C185.6 138.547 184.981 139.283 184.192 139.88C183.424 140.477 182.539 140.925 181.536 141.224C180.555 141.544 179.541 141.704 178.496 141.704C177.045 141.704 175.691 141.448 174.432 140.936C173.195 140.403 172.117 139.688 171.2 138.792C170.283 137.896 169.568 136.915 169.056 135.848L172.832 133.128ZM189.6 120.744C189.6 119.976 189.877 119.357 190.432 118.888C190.987 118.397 191.648 118.152 192.416 118.152C193.205 118.152 193.867 118.397 194.4 118.888C194.955 119.357 195.232 119.976 195.232 120.744C195.232 121.512 194.955 122.141 194.4 122.632C193.867 123.123 193.205 123.368 192.416 123.368C191.648 123.368 190.987 123.123 190.432 122.632C189.877 122.141 189.6 121.512 189.6 120.744ZM190.08 126.28H194.752V141H190.08V126.28ZM208.3 132.04C208.3 131.165 208.129 130.493 207.788 130.024C207.468 129.555 206.924 129.32 206.156 129.32C205.644 129.32 205.196 129.427 204.812 129.64C204.428 129.853 204.129 130.163 203.916 130.568C203.702 130.973 203.596 131.464 203.596 132.04V141H198.732V126.28H203.596V128.488C204.022 127.677 204.598 127.048 205.324 126.6C206.07 126.152 206.988 125.928 208.076 125.928C209.91 125.928 211.244 126.419 212.076 127.4C212.908 128.381 213.324 129.757 213.324 131.528V141H208.3V132.04ZM221.202 133.64C221.202 134.429 221.373 135.112 221.714 135.688C222.055 136.243 222.525 136.68 223.122 137C223.741 137.32 224.402 137.48 225.106 137.48C225.703 137.48 226.269 137.395 226.802 137.224C227.357 137.032 227.858 136.776 228.306 136.456C228.775 136.136 229.159 135.741 229.458 135.272V139.976C228.946 140.381 228.306 140.712 227.538 140.968C226.77 141.203 225.831 141.32 224.722 141.32C223.101 141.32 221.639 141 220.338 140.36C219.058 139.72 218.045 138.824 217.298 137.672C216.573 136.52 216.21 135.176 216.21 133.64C216.21 132.083 216.573 130.739 217.298 129.608C218.045 128.456 219.058 127.56 220.338 126.92C221.639 126.28 223.101 125.96 224.722 125.96C225.831 125.96 226.77 126.088 227.538 126.344C228.306 126.579 228.946 126.877 229.458 127.24V131.976C229.159 131.507 228.765 131.112 228.274 130.792C227.805 130.472 227.293 130.227 226.738 130.056C226.183 129.885 225.639 129.8 225.106 129.8C224.402 129.8 223.741 129.971 223.122 130.312C222.525 130.653 222.055 131.112 221.714 131.688C221.373 132.264 221.202 132.915 221.202 133.64ZM240.439 141.32C238.732 141.32 237.249 141.011 235.991 140.392C234.753 139.752 233.793 138.856 233.111 137.704C232.428 136.552 232.087 135.197 232.087 133.64C232.087 132.061 232.417 130.696 233.079 129.544C233.74 128.392 234.689 127.507 235.927 126.888C237.185 126.269 238.668 125.96 240.375 125.96C242.081 125.96 243.521 126.259 244.695 126.856C245.868 127.432 246.764 128.275 247.383 129.384C248.001 130.493 248.311 131.837 248.311 133.416C248.311 133.651 248.311 133.885 248.311 134.12C248.311 134.333 248.289 134.515 248.247 134.664H234.807V131.976H243.895L242.743 133.448C242.849 133.299 242.935 133.117 242.999 132.904C243.084 132.669 243.127 132.477 243.127 132.328C243.127 131.688 243.009 131.133 242.775 130.664C242.54 130.195 242.209 129.832 241.783 129.576C241.356 129.32 240.855 129.192 240.279 129.192C239.553 129.192 238.945 129.352 238.455 129.672C237.964 129.992 237.591 130.483 237.335 131.144C237.1 131.784 236.972 132.595 236.951 133.576C236.951 134.472 237.079 135.24 237.335 135.88C237.591 136.52 237.975 137.011 238.487 137.352C238.999 137.672 239.628 137.832 240.375 137.832C241.228 137.832 241.953 137.672 242.551 137.352C243.169 137.032 243.66 136.552 244.023 135.912L248.343 136.968C247.575 138.419 246.529 139.507 245.207 140.232C243.905 140.957 242.316 141.32 240.439 141.32ZM261.176 125.064V120.36L271.928 118.184V141H266.712V123.688L261.176 125.064ZM289.745 126.472C289.745 125.704 289.575 125.043 289.233 124.488C288.913 123.912 288.465 123.475 287.889 123.176C287.335 122.856 286.705 122.696 286.001 122.696C285.276 122.696 284.625 122.856 284.049 123.176C283.495 123.475 283.047 123.912 282.705 124.488C282.385 125.043 282.225 125.704 282.225 126.472C282.225 127.219 282.385 127.88 282.705 128.456C283.047 129.032 283.495 129.48 284.049 129.8C284.625 130.12 285.276 130.28 286.001 130.28C286.705 130.28 287.335 130.12 287.889 129.8C288.465 129.48 288.913 129.032 289.233 128.456C289.575 127.88 289.745 127.219 289.745 126.472ZM286.033 140.904H279.185L286.449 132.808L287.537 132.328C286.94 132.904 286.364 133.288 285.809 133.48C285.276 133.651 284.604 133.736 283.793 133.736C282.961 133.736 282.129 133.576 281.297 133.256C280.487 132.915 279.751 132.435 279.089 131.816C278.428 131.176 277.895 130.408 277.489 129.512C277.084 128.616 276.881 127.603 276.881 126.472C276.881 124.616 277.287 123.069 278.097 121.832C278.929 120.595 280.028 119.667 281.393 119.048C282.78 118.408 284.316 118.088 286.001 118.088C287.665 118.088 289.18 118.408 290.545 119.048C291.932 119.667 293.031 120.595 293.841 121.832C294.673 123.069 295.089 124.616 295.089 126.472C295.089 127.667 294.833 128.776 294.321 129.8C293.831 130.824 293.223 131.784 292.497 132.68L286.033 140.904ZM311.152 126.472C311.152 125.704 310.981 125.043 310.64 124.488C310.32 123.912 309.872 123.475 309.296 123.176C308.741 122.856 308.112 122.696 307.408 122.696C306.682 122.696 306.032 122.856 305.456 123.176C304.901 123.475 304.453 123.912 304.112 124.488C303.792 125.043 303.632 125.704 303.632 126.472C303.632 127.219 303.792 127.88 304.112 128.456C304.453 129.032 304.901 129.48 305.456 129.8C306.032 130.12 306.682 130.28 307.408 130.28C308.112 130.28 308.741 130.12 309.296 129.8C309.872 129.48 310.32 129.032 310.64 128.456C310.981 127.88 311.152 127.219 311.152 126.472ZM307.44 140.904H300.592L307.856 132.808L308.944 132.328C308.346 132.904 307.77 133.288 307.216 133.48C306.682 133.651 306.01 133.736 305.2 133.736C304.368 133.736 303.536 133.576 302.704 133.256C301.893 132.915 301.157 132.435 300.496 131.816C299.834 131.176 299.301 130.408 298.896 129.512C298.49 128.616 298.288 127.603 298.288 126.472C298.288 124.616 298.693 123.069 299.504 121.832C300.336 120.595 301.434 119.667 302.8 119.048C304.186 118.408 305.722 118.088 307.408 118.088C309.072 118.088 310.586 118.408 311.952 119.048C313.338 119.667 314.437 120.595 315.248 121.832C316.08 123.069 316.496 124.616 316.496 126.472C316.496 127.667 316.24 128.776 315.728 129.8C315.237 130.824 314.629 131.784 313.904 132.68L307.44 140.904ZM318.085 123.656V118.6H336.357L325.541 141H319.685L328.421 123.656H318.085Z" fill="#272D41"/>
</svg>
