<svg width="96" height="18" viewBox="0 0 96 18" fill="none" xmlns="http://www.w3.org/2000/svg">
<path d="M5.65003 8.616L4.54603 18H0.946031L3.44203 0.36L10.498 11.184L17.506 0.36L20.05 18H16.426L15.346 8.616L10.498 16.44L5.65003 8.616ZM22.6951 1.2H33.3991V4.128H26.0551V7.656H32.9191V10.512H26.0551V15.072H33.3991V18H22.6951V1.2ZM48.133 18L46.381 14.208H40.621L38.893 18H34.981L43.501 0.191999L52.045 18H48.133ZM43.501 6.672L41.437 11.472H45.565L43.501 6.672ZM50.4995 4.32V1.2H63.0035V4.32H58.4675V18H55.0115V4.32H50.4995Z" fill="#272D41"/>
<path d="M64.9529 1.2H74.6969V4.224H68.3129V7.968H74.4569V10.848H68.3129V18H64.9529V1.2ZM77.8435 1.2H81.3475V18H77.8435V1.2ZM83.2885 4.32V1.2H95.7925V4.32H91.2565V18H87.8005V4.32H83.2885Z" fill="#FE5265"/>
</svg>
