<svg width="80" height="71" viewBox="0 0 80 71" fill="none" xmlns="http://www.w3.org/2000/svg">
<rect x="-2" y="2" width="76" height="9.31746" rx="4.65873" transform="matrix(1 0 0 -1 4 40.3174)" fill="white" stroke="black" stroke-width="4"/>
<rect x="-2" y="2" width="76" height="8.25397" rx="4.12698" transform="matrix(1 0 0 -1 4 55.0476)" fill="white" stroke="black" stroke-width="4"/>
<rect x="-2" y="2" width="76" height="9.31746" rx="4.65873" transform="matrix(1 0 0 -1 4 71)" fill="white" stroke="black" stroke-width="4"/>
<g style="mix-blend-mode:darken">
<path d="M5.14844 6.54545H11.0462L15.103 16.4318H15.3075L19.3643 6.54545H25.2621V24H20.6257V13.9091H20.4893L16.603 23.8636H13.8075L9.92116 13.8409H9.7848V24H5.14844V6.54545ZM27.5078 24V6.54545H40.0874V10.3636H32.2464V13.3636H39.4396V17.1818H32.2464V20.1818H40.0533V24H27.5078ZM57.5398 6.54545V24H53.5852L47.2784 14.8295H47.1761V24H42.4375V6.54545H46.4602L52.6648 15.6818H52.8011V6.54545H57.5398ZM70.1108 6.54545H74.8494V17.7273C74.8494 19.0568 74.5313 20.2074 73.8949 21.179C73.2642 22.1449 72.3835 22.892 71.2528 23.4205C70.1222 23.9432 68.8097 24.2045 67.3153 24.2045C65.8097 24.2045 64.4915 23.9432 63.3608 23.4205C62.2301 22.892 61.3494 22.1449 60.7188 21.179C60.0938 20.2074 59.7812 19.0568 59.7812 17.7273V6.54545H64.5199V17.3182C64.5199 17.858 64.6392 18.3409 64.8778 18.767C65.1165 19.1875 65.446 19.517 65.8665 19.7557C66.2926 19.9943 66.7756 20.1136 67.3153 20.1136C67.8608 20.1136 68.3438 19.9943 68.7642 19.7557C69.1847 19.517 69.5142 19.1875 69.7528 18.767C69.9915 18.3409 70.1108 17.858 70.1108 17.3182V6.54545Z" fill="black"/>
</g>
</svg>
